<svg version="1.1" id="Layer_1" xmlns="http://www.w3.org/2000/svg" xmlns:xlink="http://www.w3.org/1999/xlink" x="0px" y="0px"
	 width="100%" viewBox="0 0 500 500" enable-background="new 0 0 500 500" xml:space="preserve">
<path fill="#000000" opacity="1.000000" stroke="none" 
	d="
M230.000000,501.000000 
	C153.333359,501.000000 77.166702,501.000000 1.000041,501.000000 
	C1.000027,334.333405 1.000027,167.666779 1.000014,1.000130 
	C167.666565,1.000087 334.333130,1.000087 500.999756,1.000043 
	C500.999847,167.666519 500.999847,334.333038 500.999939,500.999786 
	C410.833344,501.000000 320.666656,501.000000 230.000000,501.000000 
M130.527451,324.236389 
	C130.527451,324.236389 130.572403,324.194489 129.782013,324.093994 
	C128.275452,324.707611 126.741890,325.262756 125.266556,325.944031 
	C112.905357,331.652161 111.182838,344.797852 122.256615,352.573059 
	C129.759705,357.841156 137.724655,362.780548 146.123856,366.365601 
	C158.457458,371.630005 171.135788,376.423431 184.087173,379.812988 
	C198.199493,383.506409 212.722214,385.865326 227.195343,387.874329 
	C239.348877,389.561432 251.688202,389.909943 264.882965,391.019806 
	C273.256195,390.961945 281.629395,390.904083 290.928833,390.969849 
	C302.667938,389.984497 314.562073,389.868713 326.109802,387.809967 
	C343.435577,384.721161 359.793518,378.496490 374.767914,368.916565 
	C390.070831,359.126495 403.095825,346.678772 413.204071,331.906982 
	C420.789734,320.821655 426.505493,308.207458 431.461914,295.645874 
	C435.960785,284.243988 435.292938,271.730957 435.019409,259.518433 
	C434.570831,239.491272 427.958923,222.512482 411.574585,209.979019 
	C397.929688,199.541122 382.710785,197.330643 366.669312,201.810776 
	C349.583221,206.582657 335.584076,217.080322 322.778900,228.886078 
	C315.559052,235.542419 309.535858,243.496674 302.302704,250.762711 
	C300.882538,249.680969 299.390503,248.680954 298.053192,247.504990 
	C282.646118,233.956635 266.923340,220.756851 247.512177,213.269592 
	C237.047104,209.232971 226.172928,206.224823 215.400345,203.032700 
	C210.795242,201.668091 205.978500,201.017670 200.794861,199.254517 
	C192.662766,199.165070 184.530640,199.025345 176.398621,199.031555 
	C174.900436,199.032700 173.402695,199.624802 171.056091,199.999252 
	C158.515900,202.268951 145.801376,203.848526 133.474319,206.962067 
	C112.356064,212.296036 96.184853,223.996017 86.638977,244.517944 
	C75.054680,269.422119 86.159607,292.676514 106.663399,304.794037 
	C123.896317,314.978516 143.000549,312.654633 161.735001,310.641815 
	C172.708374,309.462830 183.590546,307.434906 195.276154,305.876282 
	C197.337967,305.580658 199.395706,305.067261 201.462311,305.028778 
	C208.747101,304.892883 216.034927,304.919891 223.429367,305.017792 
	C223.429367,305.017792 223.562149,304.910126 223.964493,305.461792 
	C224.425354,305.282532 224.886200,305.103271 225.633316,305.125580 
	C225.633316,305.125580 225.983429,305.127930 226.254852,305.643707 
	C226.996399,305.691711 227.737930,305.739716 229.382446,305.996338 
	C233.213730,306.639435 237.044998,307.282501 240.236572,308.234375 
	C229.886047,311.475525 219.735962,315.943939 209.138748,317.674774 
	C192.582474,320.378906 175.723358,321.228851 158.549210,322.128967 
	C149.420227,322.653015 140.291229,323.177094 130.719421,323.844025 
	C130.719421,323.844025 130.466049,324.234283 130.527451,324.236389 
M372.108643,116.760986 
	C373.324127,112.403854 374.891022,108.109436 375.682098,103.676559 
	C377.338440,94.394470 379.093933,85.080177 379.846008,75.701897 
	C380.483826,67.748940 373.219879,63.591335 366.744904,68.268997 
	C359.833588,73.261871 353.102417,78.840469 347.490631,85.217613 
	C338.930573,94.945152 330.262939,104.389961 318.301788,109.784554 
	C309.049377,113.957481 299.269775,116.953644 289.973724,121.039848 
	C279.157104,125.794456 267.761261,129.280823 260.185028,139.891754 
	C251.860580,151.550568 248.897430,170.472046 256.021851,181.973923 
	C266.697540,199.209106 281.390747,209.451859 302.790009,209.181595 
	C319.903351,208.965469 332.512360,201.778366 341.996399,188.175049 
	C356.928680,166.757080 366.076477,142.850449 372.108643,116.760986 
z"/>
<path fill="#4CA4A0" opacity="1.000000" stroke="none" 
	d="
M158.992538,322.864349 
	C175.723358,321.228851 192.582474,320.378906 209.138748,317.674774 
	C219.735962,315.943939 229.886047,311.475525 240.826416,308.182434 
	C248.773041,303.755707 257.374023,300.624481 263.238037,294.757599 
	C277.172546,280.816132 289.811279,265.579529 302.973602,250.866272 
	C309.535858,243.496674 315.559052,235.542419 322.778900,228.886078 
	C335.584076,217.080322 349.583221,206.582657 366.669312,201.810776 
	C382.710785,197.330643 397.929688,199.541122 411.574585,209.979019 
	C427.958923,222.512482 434.570831,239.491272 435.019409,259.518433 
	C435.292938,271.730957 435.960785,284.243988 431.461914,295.645874 
	C426.505493,308.207458 420.789734,320.821655 413.204071,331.906982 
	C403.095825,346.678772 390.070831,359.126495 374.767914,368.916565 
	C359.793518,378.496490 343.435577,384.721161 326.109802,387.809967 
	C314.562073,389.868713 302.667938,389.984497 290.154236,390.624359 
	C284.931061,390.212372 280.479919,390.022491 276.034729,390.115875 
	C272.001526,390.200623 267.974854,390.593872 263.945282,390.851105 
	C251.688202,389.909943 239.348877,389.561432 227.195343,387.874329 
	C212.722214,385.865326 198.199493,383.506409 184.087173,379.812988 
	C171.135788,376.423431 158.457458,371.630005 146.123856,366.365601 
	C137.724655,362.780548 129.759705,357.841156 122.256615,352.573059 
	C111.182838,344.797852 112.905357,331.652161 125.266556,325.944031 
	C126.741890,325.262756 128.275452,324.707611 130.145477,324.120728 
	C130.508926,324.147491 130.466049,324.234283 130.466049,324.234283 
	C130.466049,324.234283 130.719421,323.844025 131.386261,323.863708 
	C141.032898,323.543732 150.012726,323.204041 158.992538,322.864349 
z"/>
<path fill="#68C7C3" opacity="1.000000" stroke="none" 
	d="
M302.638153,250.814484 
	C289.811279,265.579529 277.172546,280.816132 263.238037,294.757599 
	C257.374023,300.624481 248.773041,303.755707 241.146271,308.028046 
	C237.044998,307.282501 233.213730,306.639435 228.794952,305.752899 
	C227.466125,305.382294 226.724777,305.255127 225.983429,305.127930 
	C225.983429,305.127930 225.633316,305.125580 225.043976,304.944946 
	C224.157135,304.812927 223.859650,304.861511 223.562149,304.910126 
	C223.562149,304.910126 223.429367,305.017792 223.016357,304.710999 
	C216.876358,304.219299 211.140366,303.760651 205.425568,303.948029 
	C201.772095,304.067841 198.149933,305.142365 194.513733,305.788849 
	C183.590546,307.434906 172.708374,309.462830 161.735001,310.641815 
	C143.000549,312.654633 123.896317,314.978516 106.663399,304.794037 
	C86.159607,292.676514 75.054680,269.422119 86.638977,244.517944 
	C96.184853,223.996017 112.356064,212.296036 133.474319,206.962067 
	C145.801376,203.848526 158.515900,202.268951 171.944199,200.081268 
	C182.307510,200.123093 191.782730,200.082916 201.257935,200.042725 
	C205.978500,201.017670 210.795242,201.668091 215.400345,203.032700 
	C226.172928,206.224823 237.047104,209.232971 247.512177,213.269592 
	C266.923340,220.756851 282.646118,233.956635 298.053192,247.504990 
	C299.390503,248.680954 300.882538,249.680969 302.638153,250.814484 
z"/>
<path fill="#4CA5A1" opacity="1.000000" stroke="none" 
	d="
M372.071411,117.180016 
	C366.076477,142.850449 356.928680,166.757080 341.996399,188.175049 
	C332.512360,201.778366 319.903351,208.965469 302.790009,209.181595 
	C281.390747,209.451859 266.697540,199.209106 256.021851,181.973923 
	C248.897430,170.472046 251.860580,151.550568 260.185028,139.891754 
	C267.761261,129.280823 279.157104,125.794456 289.973724,121.039848 
	C299.269775,116.953644 309.049377,113.957481 318.301788,109.784554 
	C330.262939,104.389961 338.930573,94.945152 347.490631,85.217613 
	C353.102417,78.840469 359.833588,73.261871 366.744904,68.268997 
	C373.219879,63.591335 380.483826,67.748940 379.846008,75.701897 
	C379.093933,85.080177 377.338440,94.394470 375.682098,103.676559 
	C374.891022,108.109436 373.324127,112.403854 372.071411,117.180016 
z"/>
<path fill="#DCEDEC" opacity="1.000000" stroke="none" 
	d="
M158.770874,322.496643 
	C150.012726,323.204041 141.032898,323.543732 131.607666,323.792297 
	C140.291229,323.177094 149.420227,322.653015 158.770874,322.496643 
z"/>
<path fill="#E2F4F3" opacity="1.000000" stroke="none" 
	d="
M194.894943,305.832581 
	C198.149933,305.142365 201.772095,304.067841 205.425568,303.948029 
	C211.140366,303.760651 216.876358,304.219299 222.962479,304.644653 
	C216.034927,304.919891 208.747101,304.892883 201.462311,305.028778 
	C199.395706,305.067261 197.337967,305.580658 194.894943,305.832581 
z"/>
<path fill="#DFF3F2" opacity="1.000000" stroke="none" 
	d="
M201.026398,199.648621 
	C191.782730,200.082916 182.307510,200.123093 172.368530,200.053696 
	C173.402695,199.624802 174.900436,199.032700 176.398621,199.031555 
	C184.530640,199.025345 192.662766,199.165070 201.026398,199.648621 
z"/>
<path fill="#B9DBD9" opacity="1.000000" stroke="none" 
	d="
M264.414124,390.935455 
	C267.974854,390.593872 272.001526,390.200623 276.034729,390.115875 
	C280.479919,390.022491 284.931061,390.212372 289.691101,390.562561 
	C281.629395,390.904083 273.256195,390.961945 264.414124,390.935455 
z"/>
<path fill="#E2F4F3" opacity="1.000000" stroke="none" 
	d="
M226.119141,305.385803 
	C226.724777,305.255127 227.466125,305.382294 228.343475,305.648590 
	C227.737930,305.739716 226.996399,305.691711 226.119141,305.385803 
z"/>
<path fill="#E2F4F3" opacity="1.000000" stroke="none" 
	d="
M223.763321,305.185974 
	C223.859650,304.861511 224.157135,304.812927 224.900848,304.844177 
	C224.886200,305.103271 224.425354,305.282532 223.763321,305.185974 
z"/>
<path fill="#DCEDEC" opacity="1.000000" stroke="none" 
	d="
M130.496750,324.235352 
	C130.466049,324.234283 130.508926,324.147491 130.540665,324.170990 
	C130.572403,324.194489 130.527451,324.236389 130.496750,324.235352 
z"/>
</svg>